<?xml version="1.0" encoding="UTF-8"?>
<svg version="1.1" xmlns="http://www.w3.org/2000/svg" width="336" height="298">
<path d="M0 0 C2.11490657 1.27636292 4.23083445 2.55103472 6.34765625 3.82421875 C7.44480957 4.4898584 8.54196289 5.15549805 9.67236328 5.84130859 C14.79401403 8.9137089 19.98338483 11.86540827 25.17736816 14.81311035 C28.12480398 16.48664229 31.06814353 18.16734615 34.01171875 19.84765625 C34.59506989 20.18050629 35.17842102 20.51335632 35.77944946 20.85629272 C49.74822813 28.82986046 63.68582356 36.85870192 77.53417969 45.03979492 C88.32653635 51.40448484 99.20451377 57.62324506 110.0625 63.875 C112.3464054 65.19001519 114.63025983 66.50511891 116.9140625 67.8203125 C118.02942383 68.46258789 119.14478516 69.10486328 120.29394531 69.76660156 C123.56032667 71.65020524 126.82324341 73.53970616 130.0859375 75.4296875 C133.78330598 77.56952627 137.49334941 79.68120357 141.2265625 81.7578125 C149.86518698 86.60360583 157.39639869 90.87627205 161.5625 100.25 C162.53918708 107.33098132 162.16828471 113.94174421 157.86669922 119.88842773 C155.80479119 122.15875867 153.72781508 123.5617769 151.12109375 125.17578125 C150.14011719 125.78333252 149.15914062 126.39088379 148.1484375 127.0168457 C143.1357584 130.03516063 138.07962918 132.97101507 133 135.875 C131.2836132 136.86071612 129.56722872 137.8464363 127.85098267 138.83239746 C126.08582425 139.84605824 124.32005668 140.85865132 122.55419922 141.87109375 C117.05054936 145.02792729 111.55712992 148.20250286 106.0625 151.375 C99.54027398 155.13882393 93.01736221 158.90144631 86.4921875 162.66015625 C76.00017906 168.70555159 65.51768324 174.76610219 55.0625 180.875 C44.63101824 186.97004919 34.17284743 193.01778067 23.703125 199.046875 C19.70440191 201.34989181 15.70873414 203.65800925 11.71743774 205.97386169 C9.93818175 207.00616402 8.15837722 208.03751434 6.37841797 209.06860352 C4.14720424 210.36151699 1.91699741 211.65617029 -0.31201172 212.95288086 C-18.12536081 223.26445621 -18.12536081 223.26445621 -27.9375 221.875 C-34.11630916 220.0777216 -38.45017532 216.21704831 -41.9375 210.875 C-43.51704925 207.41790104 -44.21202576 204.58371693 -44.3515625 200.79296875 C-44.39023438 199.86162109 -44.42890625 198.93027344 -44.46875 197.97070312 C-44.4996875 197.01099609 -44.530625 196.05128906 -44.5625 195.0625 C-44.60117188 194.08345703 -44.63984375 193.10441406 -44.6796875 192.09570312 C-44.77360816 189.68898626 -44.85928201 187.28226988 -44.9375 184.875 C-45.60934326 184.75672852 -46.28118652 184.63845703 -46.97338867 184.51660156 C-47.8626001 184.3512793 -48.75181152 184.18595703 -49.66796875 184.015625 C-50.98510864 183.77634277 -50.98510864 183.77634277 -52.32885742 183.53222656 C-59.17742958 181.80678377 -63.94153205 177.51636652 -67.9375 171.875 C-70.62125282 166.89088763 -70.50095375 162.02884221 -69.08300781 156.60864258 C-68.68952148 155.50673584 -68.29603516 154.4048291 -67.890625 153.26953125 C-67.4575 152.03783203 -67.024375 150.80613281 -66.578125 149.53710938 C-66.11495576 148.25377178 -65.65141256 146.97056908 -65.1875 145.6875 C-64.7385549 144.42419313 -64.29063069 143.16052298 -63.84375 141.89648438 C-62.96722814 139.42031013 -62.08773172 136.94518657 -61.20507812 134.47119141 C-59.38059461 129.29502765 -57.64848149 124.08962145 -55.9375 118.875 C-57.12146362 118.42906494 -57.12146362 118.42906494 -58.3293457 117.97412109 C-61.09642582 116.80802593 -62.252612 115.79907159 -64.125 113.5 C-64.85783203 112.62214844 -64.85783203 112.62214844 -65.60546875 111.7265625 C-69.37438951 106.48765212 -69.74123071 102.19972036 -68.9375 95.875 C-67.49682908 89.5562679 -65.37375053 83.40838503 -63.375 77.25 C-62.79229955 75.42245819 -62.21094758 73.59448594 -61.63085938 71.76611328 C-60.71151548 68.87038086 -59.79064406 65.97519586 -58.86410522 63.08175659 C-56.48494586 55.64562914 -54.1850263 48.18736768 -51.91015625 40.71875 C-50.91180839 37.45831823 -49.91232182 34.19823794 -48.91238403 30.93829346 C-48.26641605 28.82569809 -47.62385471 26.71205785 -46.98483276 24.59735107 C-46.08404915 21.62135378 -45.1686477 18.65021116 -44.25 15.6796875 C-43.9889296 14.80429321 -43.72785919 13.92889893 -43.45887756 13.02697754 C-41.33132726 6.22392393 -38.6513468 0.16669286 -33.125 -4.5 C-20.89753534 -10.73360944 -11.04495467 -6.89061197 0 0 Z " fill="#A649ED" transform="translate(122.9375,32.125)"/>
<path d="M0 0 C1.3954979 0.62574859 2.79133521 1.25074079 4.1875 1.875 C9.40198797 4.50785542 12.07276284 7.80834852 14.375 13.25 C15.42992428 19.5795457 15.19151559 25.43360166 12.125 31.1875 C9.82133905 34.37217288 7.3903953 36.23782879 4.05859375 38.30078125 C3.07761719 38.90833252 2.09664062 39.51588379 1.0859375 40.1418457 C-3.9267416 43.16016063 -8.98287082 46.09601507 -14.0625 49 C-15.7788868 49.98571612 -17.49527128 50.9714363 -19.21151733 51.95739746 C-20.97667575 52.97105824 -22.74244332 53.98365132 -24.50830078 54.99609375 C-30.01195064 58.15292729 -35.50537008 61.32750286 -41 64.5 C-47.52222602 68.26382393 -54.04513779 72.02644631 -60.5703125 75.78515625 C-71.06232094 81.83055159 -81.54481676 87.89110219 -92 94 C-102.43148176 100.09504919 -112.88965257 106.14278067 -123.359375 112.171875 C-127.35809809 114.47489181 -131.35376586 116.78300925 -135.34506226 119.09886169 C-137.12431825 120.13116402 -138.90412278 121.16251434 -140.68408203 122.19360352 C-142.91529576 123.48651699 -145.14550259 124.78117029 -147.37451172 126.07788086 C-165.18786081 136.38945621 -165.18786081 136.38945621 -175 135 C-181.17880916 133.2027216 -185.51267532 129.34204831 -189 124 C-190.80168018 120.19566808 -191.24501707 117.21148557 -191.22705078 113.01635742 C-191.22689972 111.83551071 -191.22674866 110.654664 -191.22659302 109.43803406 C-191.21110916 107.54091423 -191.21110916 107.54091423 -191.1953125 105.60546875 C-191.1924826 104.30297684 -191.18965271 103.00048492 -191.18673706 101.65852356 C-191.17912697 98.20777616 -191.15950135 94.75719902 -191.1373291 91.30651855 C-191.11681388 87.780541 -191.10772324 84.25453575 -191.09765625 80.72851562 C-191.07625272 73.81894079 -191.04214874 66.90947859 -191 60 C-190.08412109 59.98541748 -189.16824219 59.97083496 -188.22460938 59.95581055 C-184.74263263 59.89382015 -181.26132836 59.81951593 -177.77978516 59.73754883 C-176.28867074 59.70481393 -174.79744763 59.67663256 -173.30615234 59.65356445 C-148.49795984 59.25991656 -129.30810429 53.72005581 -111.5625 35.5625 C-106.70825696 30.59774004 -101.44937417 26.2930083 -96 22 C-95.23381348 21.38656738 -95.23381348 21.38656738 -94.45214844 20.76074219 C-81.87208922 10.69204415 -68.99245525 2.15343546 -53.3515625 -2.27734375 C-51.22402745 -2.93115436 -49.27220248 -3.70298257 -47.25 -4.625 C-32.98003693 -10.66229207 -13.08544752 -7.46523362 0 0 Z " fill="#7A18C5" transform="translate(270,119)"/>
<path d="M0 0 C2.10188267 1.26855545 4.20479156 2.53541173 6.30859375 3.80078125 C7.40413574 4.4654541 8.49967773 5.13012695 9.62841797 5.81494141 C14.94858064 9.02399205 20.35277851 12.08754399 25.75332642 15.15863037 C27.54896994 16.17980551 29.34336837 17.20313653 31.13745117 18.22705078 C39.75978384 23.14422383 48.39843953 28.03173638 57.0625 32.875 C56.8125 35.25 56.8125 35.25 56.0625 37.875 C53.16734034 39.93348508 49.721141 40.60726069 46.3125 41.5 C45.32765625 41.76039062 44.3428125 42.02078125 43.328125 42.2890625 C42.58046875 42.48242188 41.8328125 42.67578125 41.0625 42.875 C41.0625 43.535 41.0625 44.195 41.0625 44.875 C39.45215599 46.64637841 37.81694411 48.25036902 36.0625 49.875 C35.32257813 50.56207031 34.58265625 51.24914062 33.8203125 51.95703125 C29.90944547 55.53285515 25.98389954 58.99843018 21.75 62.1875 C18.94399344 64.30325896 16.33185266 66.52493447 13.78515625 68.94140625 C13.21128174 69.48563232 12.63740723 70.0298584 12.04614258 70.59057617 C10.91116381 71.67696551 9.78430941 72.77192219 8.66674805 73.8762207 C5.5093154 76.90166907 3.40692114 78.38598685 -0.9375 78.875 C-2.47142161 79.48910033 -3.99234325 80.13647794 -5.5 80.8125 C-10.36132866 82.82408427 -15.07843667 83.7471375 -20.2734375 84.48046875 C-22.86356857 84.81439216 -22.86356857 84.81439216 -25.05078125 85.4296875 C-27.64899542 86.0429306 -30.17955369 85.8221323 -32.83203125 85.77734375 C-36.08095872 85.92803612 -38.86072949 86.84940983 -41.9375 87.875 C-42.0303125 89.5146875 -42.0303125 89.5146875 -42.125 91.1875 C-42.71077843 95.88197784 -44.4901984 99.67550717 -46.52734375 103.91015625 C-48.85999345 108.8145361 -50.87725907 113.85151893 -52.9375 118.875 C-55.90387272 119.13339484 -57.50294482 119.14401035 -60.0703125 117.5546875 C-65.21470728 112.89447105 -68.96153924 109.0744997 -69.34765625 101.83984375 C-69.23853687 93.326227 -65.97603579 85.26409661 -63.375 77.25 C-62.79229955 75.42245819 -62.21094758 73.59448594 -61.63085938 71.76611328 C-60.71151548 68.87038086 -59.79064406 65.97519586 -58.86410522 63.08175659 C-56.48494586 55.64562914 -54.1850263 48.18736768 -51.91015625 40.71875 C-50.91180839 37.45831823 -49.91232182 34.19823794 -48.91238403 30.93829346 C-48.26641605 28.82569809 -47.62385471 26.71205785 -46.98483276 24.59735107 C-46.08404915 21.62135378 -45.1686477 18.65021116 -44.25 15.6796875 C-43.9889296 14.80429321 -43.72785919 13.92889893 -43.45887756 13.02697754 C-41.33132726 6.22392393 -38.6513468 0.16669286 -33.125 -4.5 C-20.89763746 -10.73355737 -11.04488345 -6.89079264 0 0 Z " fill="#530E89" transform="translate(122.9375,32.125)"/>
<path d="M0 0 C0 12.54 0 25.08 0 38 C-11.28893058 35.94746717 -17.57425733 34.07163671 -24 25 C-26.51880725 20.3222151 -26.44333282 15.8077745 -25.625 10.625 C-25 9 -25 9 -23 8 C-22.731875 7.38125 -22.46375 6.7625 -22.1875 6.125 C-20.58453901 3.2565435 -18.94814414 2.4070688 -16 1 C-10.53919448 -0.39695025 -5.85532913 0 0 0 Z " fill="#A03BEC" transform="translate(79,179)"/>
<path d="M0 0 C0.74958984 0.00902344 1.49917969 0.01804687 2.27148438 0.02734375 C4.11862654 0.05087422 5.96560412 0.08674439 7.8125 0.125 C8.15670109 5.15798489 7.08752981 8.43892513 5 13 C2.41085772 18.74972288 2.41085772 18.74972288 0.125 24.625 C-1.11359704 27.92792544 -2.54904452 31.00413242 -4.1875 34.125 C-10.35891395 32.91491883 -12.57746404 31.28219422 -16.1875 26.125 C-18.85370271 21.58777784 -18.84205647 17.26681708 -18.1875 12.125 C-17.1583432 9.30622571 -16.01472672 7.57870445 -14.1875 5.125 C-13.1975 4.795 -12.2075 4.465 -11.1875 4.125 C-11.1875 3.465 -11.1875 2.805 -11.1875 2.125 C-7.39586973 -0.40275351 -4.37875969 -0.09943035 0 0 Z " fill="#4C0E7C" transform="translate(72.1875,115.875)"/>
<path d="M0 0 C0.99 0.33 1.98 0.66 3 1 C-7.28866216 10.55787868 -7.28866216 10.55787868 -12.375 14.375 C-15.16127203 16.46721871 -17.74852843 18.6666644 -20.2734375 21.0625 C-20.84787598 21.60729004 -21.42231445 22.15208008 -22.01416016 22.71337891 C-23.1499395 23.8005961 -24.27761715 24.89635649 -25.39599609 26.00146484 C-28.55335849 29.02682562 -30.65570921 30.51100153 -35 31 C-36.53392161 31.61410033 -38.05484325 32.26147794 -39.5625 32.9375 C-44.42382866 34.94908427 -49.14093667 35.8721375 -54.3359375 36.60546875 C-56.92606857 36.93939216 -56.92606857 36.93939216 -59.11328125 37.5546875 C-61.71149542 38.1679306 -64.24205369 37.9471323 -66.89453125 37.90234375 C-70.14345872 38.05303612 -72.92322949 38.97440983 -76 40 C-76.0928125 41.6396875 -76.0928125 41.6396875 -76.1875 43.3125 C-76.77327843 48.00697784 -78.5526984 51.80050717 -80.58984375 56.03515625 C-82.92249345 60.9395361 -84.93975907 65.97651893 -87 71 C-88.65 71 -90.3 71 -92 71 C-92.33 70.34 -92.66 69.68 -93 69 C-91.68 69.33 -90.36 69.66 -89 70 C-88.73058594 69.175 -88.46117188 68.35 -88.18359375 67.5 C-86.87794827 63.63908137 -85.48715465 59.81821799 -84.0625 56 C-83.81048828 55.31421875 -83.55847656 54.6284375 -83.29882812 53.921875 C-82.12893647 50.78620631 -80.92192322 47.8502124 -79.37109375 44.875 C-77.93987748 41.87393113 -77.39128483 39.28679256 -77 36 C-79.60452271 36.14086602 -82.20850197 36.28748464 -84.8125 36.4375 C-85.55048828 36.47681641 -86.28847656 36.51613281 -87.04882812 36.55664062 C-90.23071342 36.74381035 -92.96162378 36.98720793 -96 38 C-96 38.66 -96 39.32 -96 40 C-97.62626404 41.38232443 -99.2925002 42.71937515 -101 44 C-97.92482916 31.33029613 -97.92482916 31.33029613 -96 26 C-95.17361624 28.89234315 -95 30.88742431 -95 34 C-83.45 34 -71.9 34 -60 34 C-59.505 33.01 -59.505 33.01 -59 32 C-58.0409375 32.2784375 -58.0409375 32.2784375 -57.0625 32.5625 C-50.50234858 33.49966449 -44.2379423 31.99083265 -38 30 C-38 29.34 -38 28.68 -38 28 C-37.43410156 27.81824219 -36.86820312 27.63648437 -36.28515625 27.44921875 C-35.55167969 27.19785156 -34.81820312 26.94648437 -34.0625 26.6875 C-32.96615234 26.32205078 -32.96615234 26.32205078 -31.84765625 25.94921875 C-29.64067976 25.08759559 -29.64067976 25.08759559 -29 22 C-27.546875 20.71875 -27.546875 20.71875 -25.75 19.5 C-25.12222656 19.06816406 -24.49445313 18.63632813 -23.84765625 18.19140625 C-22.33123288 17.21358569 -20.76478422 16.31376901 -19.1875 15.4375 C-16.73125277 13.82339468 -16.1162175 12.66174942 -15 10 C-13 8 -13 8 -10.3125 7.25 C-6.53742693 5.82544412 -4.45577109 3.93474541 -1.61328125 1.14453125 C-0.81470703 0.57798828 -0.81470703 0.57798828 0 0 Z " fill="#7612C1" transform="translate(157,80)"/>
<path d="M0 0 C2 1 2 1 3.1875 3.9375 C4.76879964 10.16067921 4.15410857 16.50379083 1.125 22.1875 C-1.17246988 25.36231672 -3.58535759 27.21747105 -6.91015625 29.26953125 C-7.88726562 29.87450439 -8.864375 30.47947754 -9.87109375 31.1027832 C-11.41990234 32.04190552 -11.41990234 32.04190552 -13 33 C-14.02738281 33.62414795 -15.05476563 34.2482959 -16.11328125 34.89135742 C-19.25203671 36.78012499 -22.40475088 38.6431889 -25.5625 40.5 C-26.64080078 41.14453125 -27.71910156 41.7890625 -28.83007812 42.453125 C-29.85681641 43.05640625 -30.88355469 43.6596875 -31.94140625 44.28125 C-32.86638916 44.82845703 -33.79137207 45.37566406 -34.74438477 45.93945312 C-35.48873779 46.28943359 -36.23309082 46.63941406 -37 47 C-37.66 46.67 -38.32 46.34 -39 46 C-39 45.01 -39 44.02 -39 43 C-38.37351563 42.85304687 -37.74703125 42.70609375 -37.1015625 42.5546875 C-34.59330376 41.86630103 -32.32792143 41.16610429 -30 40 C-28.62810173 36.97017694 -28.62810173 36.97017694 -28 34 C-25.22889304 32.70681675 -23.13539123 33 -20 33 C-19.01 32.34 -18.02 31.68 -17 31 C-16.01 31 -15.02 31 -14 31 C-14 30.01 -14 29.02 -14 28 C-12.35 27.67 -10.7 27.34 -9 27 C-9 23.37 -9 19.74 -9 16 C-8.34 16 -7.68 16 -7 16 C-7 16.66 -7 17.32 -7 18 C-6.34 18 -5.68 18 -5 18 C-4.67 17.34 -4.34 16.68 -4 16 C-2.68352881 15.30062468 -1.34977849 14.63270867 0 14 C0.33 13.67 0.66 13.34 1 13 C0.90982004 10.80949979 0.75333792 8.621534 0.5625 6.4375 C0.40974609 4.64119141 0.40974609 4.64119141 0.25390625 2.80859375 C0.17011719 1.88175781 0.08632813 0.95492187 0 0 Z " fill="#9F4ADE" transform="translate(281,128)"/>
<path d="M0 0 C0 0.99 0 1.98 0 3 C-0.76570313 3.31130859 -0.76570313 3.31130859 -1.546875 3.62890625 C-21.91240679 12.25898089 -40.4880404 27.04679519 -55.8125 42.875 C-62.95292019 50.1873192 -72.59930006 56.95993001 -83 58 C-83 56.68 -83 55.36 -83 54 C-80.03 54 -77.06 54 -74 54 C-74 53.34 -74 52.68 -74 52 C-73.41992188 51.68546875 -72.83984375 51.3709375 -72.2421875 51.046875 C-63.62724284 46.69118006 -63.62724284 46.69118006 -57 40 C-55 37.8125 -55 37.8125 -53 36 C-52.34 36 -51.68 36 -51 36 C-50.773125 35.4225 -50.54625 34.845 -50.3125 34.25 C-48.66800353 31.43086319 -46.5644533 29.98745131 -44 28 C-43.34 27.01 -42.68 26.02 -42 25 C-37.55555556 22 -37.55555556 22 -35 22 C-35 21.34 -35 20.68 -35 20 C-33.68 19.67 -32.36 19.34 -31 19 C-31 18.34 -31 17.68 -31 17 C-28.9453125 15.484375 -28.9453125 15.484375 -26.125 13.75 C-25.1246875 13.13125 -24.124375 12.5125 -23.09375 11.875 C-22.0728125 11.25625 -21.051875 10.6375 -20 10 C-19.0821875 9.443125 -18.164375 8.88625 -17.21875 8.3125 C-14.81767887 6.86607161 -12.41012699 5.43126995 -10 4 C-9.13761719 3.46246094 -8.27523437 2.92492187 -7.38671875 2.37109375 C-4.88736043 0.93529216 -2.83636083 0.4051944 0 0 Z " fill="#BA6CF6" transform="translate(211,116)"/>
<path d="M0 0 C17.18679949 9.3346495 34.33439273 18.7567487 51 29 C49.125 29.60546875 49.125 29.60546875 47 30 C46.34 29.443125 45.68 28.88625 45 28.3125 C31.57919503 17.96729617 10.87008556 20.31680911 -5 22 C-2.29557994 19.29557994 -0.33141641 19.42873883 3.4375 18.9375 C5.31115234 18.69193359 5.31115234 18.69193359 7.22265625 18.44140625 C12.14182198 17.86657096 17.0622932 17.3829242 22 17 C19.6002789 14.21092018 17.31030996 13.1744119 13.875 11.9375 C9.10875332 10.21750663 9.10875332 10.21750663 8 8 C7.01 7.67 6.02 7.34 5 7 C5 6.34 5 5.68 5 5 C4.01 5 3.02 5 2 5 C2 4.01 2 3.02 2 2 C1.34 2 0.68 2 0 2 C0 1.34 0 0.68 0 0 Z " fill="#C58BF3" transform="translate(225,92)"/>
<path d="M0 0 C3.41021743 0.78697325 6.68885166 1.87119943 10 3 C6.64287487 5.80464347 3.29328532 8.09578953 -0.53515625 10.20703125 C-1.59283203 10.79419922 -2.65050781 11.38136719 -3.74023438 11.98632812 C-4.83658203 12.58896484 -5.93292969 13.19160156 -7.0625 13.8125 C-15.43771008 18.44183553 -23.75503018 23.14243369 -32 28 C-32.66 27.01 -33.32 26.02 -34 25 C-33.01 24.67 -32.02 24.34 -31 24 C-30.67 23.34 -30.34 22.68 -30 22 C-29.34 22 -28.68 22 -28 22 C-28 21.34 -28 20.68 -28 20 C-27.36191406 19.80664062 -26.72382813 19.61328125 -26.06640625 19.4140625 C-25.24011719 19.15367187 -24.41382813 18.89328125 -23.5625 18.625 C-22.73878906 18.36976563 -21.91507813 18.11453125 -21.06640625 17.8515625 C-18.82201984 17.19117773 -18.82201984 17.19117773 -18 15 C-16.2578125 13.89453125 -16.2578125 13.89453125 -14.125 12.8125 C-13.42632812 12.44769531 -12.72765625 12.08289063 -12.0078125 11.70703125 C-10 11 -10 11 -7 12 C-7.020625 10.88625 -7.04125 9.7725 -7.0625 8.625 C-7 5 -7 5 -6 3 C-3.03 3.495 -3.03 3.495 0 4 C0 2.68 0 1.36 0 0 Z " fill="#9B42DC" transform="translate(215,182)"/>
<path d="M0 0 C2.64 0.33 5.28 0.66 8 1 C4.88608901 3.44823592 1.64141698 5.43533288 -1.796875 7.3984375 C-3.48296875 8.36523438 -3.48296875 8.36523438 -5.203125 9.3515625 C-6.38529776 10.02625005 -7.56759023 10.70072791 -8.75 11.375 C-17.81776063 16.52345449 -17.81776063 16.52345449 -26.703125 21.9765625 C-30 24 -30 24 -32 24 C-32 23.34 -32 22.68 -32 22 C-32.66 21.67 -33.32 21.34 -34 21 C-32.02 21 -30.04 21 -28 21 C-27.67 20.01 -27.34 19.02 -27 18 C-26.01 18.33 -25.02 18.66 -24 19 C-24 18.34 -24 17.68 -24 17 C-23.01 17 -22.02 17 -21 17 C-20.690625 15.824375 -20.690625 15.824375 -20.375 14.625 C-19 12 -19 12 -16 10.875 C-15.01 10.58625 -14.02 10.2975 -13 10 C-12.34 9.01 -11.68 8.02 -11 7 C-11 7.66 -11 8.32 -11 9 C-7.18586998 7.8321734 -7.18586998 7.8321734 -4.6875 4.875 C-4.460625 4.25625 -4.23375 3.6375 -4 3 C-2.33333333 3 -0.66666667 3 1 3 C0.505 1.515 0.505 1.515 0 0 Z " fill="#9943DE" transform="translate(174,209)"/>
<path d="M0 0 C0.33 0 0.66 0 1 0 C2.33333333 4.66666667 3.66666667 9.33333333 5 14 C7.97 14.495 7.97 14.495 11 15 C11 16.32 11 17.64 11 19 C11.7425 19 12.485 19 13.25 19 C16.5 19 19.75 19 23 19 C23.66 17.68 24.32 16.36 25 15 C25.33 18.3 25.66 21.6 26 25 C17.07236918 23.90045723 10.2198589 21.87443387 4.125 15 C0.45174657 9.81423045 -0.24968117 6.3668699 0 0 Z M15 16 C16.32 16 17.64 16 19 16 C19 16.66 19 17.32 19 18 C18.01 18.33 17.02 18.66 16 19 C15.67 18.01 15.34 17.02 15 16 Z " fill="#B46DEA" transform="translate(53,192)"/>
<path d="M0 0 C3.3 1.65 6.6 3.3 10 5 C10 5.99 10 6.98 10 8 C9.35933594 7.98839844 8.71867187 7.97679688 8.05859375 7.96484375 C0.13927423 7.8822279 -6.17558769 8.16480739 -13.10546875 12.2578125 C-15.4587487 13.17971598 -16.65602903 12.82116943 -19 12 C-18.01 11.67 -17.02 11.34 -16 11 C-16 10.34 -16 9.68 -16 9 C-15.22914063 8.73445313 -14.45828125 8.46890625 -13.6640625 8.1953125 C-12.66117188 7.84210938 -11.65828125 7.48890625 -10.625 7.125 C-9.12839844 6.60292969 -9.12839844 6.60292969 -7.6015625 6.0703125 C-4.89557882 5.15217498 -4.89557882 5.15217498 -3 3 C-2.34 3.33 -1.68 3.66 -1 4 C-0.67 2.68 -0.34 1.36 0 0 Z " fill="#8219D4" transform="translate(180,66)"/>
<path d="M0 0 C0.82638376 2.89234315 1 4.88742431 1 8 C12.55 8 24.1 8 36 8 C36.33 7.34 36.66 6.68 37 6 C40.36327963 6.56054661 42.99112219 7.41841038 46 9 C37.30019136 10.01286753 28.74507107 10.10621544 20 10 C19.67 10.66 19.34 11.32 19 12 C19 11.34 19 10.68 19 10 C16.39547729 10.14086602 13.79149803 10.28748464 11.1875 10.4375 C10.44951172 10.47681641 9.71152344 10.51613281 8.95117188 10.55664062 C5.76928658 10.74381035 3.03837622 10.98720793 0 12 C0 12.66 0 13.32 0 14 C-1.62626404 15.38232443 -3.2925002 16.71937515 -5 18 C-1.92482916 5.33029613 -1.92482916 5.33029613 0 0 Z " fill="#610EA2" transform="translate(61,106)"/>
<path d="M0 0 C0.66 0 1.32 0 2 0 C-2.5552976 11.08889586 -15.75985842 19.24223623 -26.13671875 24.25390625 C-28.71196863 25.28508597 -31.24925377 25.72492538 -34 26 C-34 24.68 -34 23.36 -34 22 C-31.03 22 -28.06 22 -25 22 C-25 21.34 -25 20.68 -25 20 C-24.41992188 19.68546875 -23.83984375 19.3709375 -23.2421875 19.046875 C-14.62724284 14.69118006 -14.62724284 14.69118006 -8 8 C-6 5.8125 -6 5.8125 -4 4 C-3.34 4 -2.68 4 -2 4 C-1.34 2.68 -0.68 1.36 0 0 Z " fill="#C075F8" transform="translate(162,148)"/>
<path d="M0 0 C0.66 0.33 1.32 0.66 2 1 C1.625 2.9375 1.625 2.9375 1 5 C0.01 5.495 0.01 5.495 -1 6 C-1.65213292 8.02463255 -1.65213292 8.02463255 -2 10 C-1.01 10 -0.02 10 1 10 C0.67 12.97 0.34 15.94 0 19 C-4 18 -4 18 -6 16 C-6.1953125 13.6171875 -6.1953125 13.6171875 -6.125 10.875 C-6.10695312 9.96492187 -6.08890625 9.05484375 -6.0703125 8.1171875 C-6.04710937 7.41851562 -6.02390625 6.71984375 -6 6 C-5.34 5.67 -4.68 5.34 -4 5 C-3.67 4.34 -3.34 3.68 -3 3 C-2 1 -2 1 0 0 Z " fill="#9D36EF" transform="translate(60,182)"/>
<path d="M0 0 C0.33 0 0.66 0 1 0 C1.31884523 6.05805937 0.56891792 9.54104943 -2 15 C-2 15.99 -2 16.98 -2 18 C-3.28062485 19.7074998 -4.61767557 21.37373596 -6 23 C-6.66 23.99 -7.32 24.98 -8 26 C-7.24742268 19.60309278 -7.24742268 19.60309278 -6 16.5625 C-4.63222432 13.05757481 -4.38034638 9.74007273 -4 6 C-3.01 6 -2.02 6 -1 6 C-0.67 4.02 -0.34 2.04 0 0 Z " fill="#9A3BE2" transform="translate(71,145)"/>
<path d="M0 0 C0.33 0 0.66 0 1 0 C0.83742218 6.81348879 -0.59467489 12.00161151 -3.58984375 18.10546875 C-5.12399912 21.25452452 -6.47699066 24.44955571 -7.8125 27.6875 C-8.23144531 28.70199219 -8.65039062 29.71648437 -9.08203125 30.76171875 C-9.38496094 31.50035156 -9.68789062 32.23898438 -10 33 C-11.65 33 -13.3 33 -15 33 C-15.33 32.34 -15.66 31.68 -16 31 C-14.68 31.33 -13.36 31.66 -12 32 C-11.72929688 31.16984375 -11.45859375 30.3396875 -11.1796875 29.484375 C-9.90200648 25.71056218 -8.52923636 21.97796633 -7.125 18.25 C-6.86251465 17.55132812 -6.6000293 16.85265625 -6.32958984 16.1328125 C-4.29091762 10.72627869 -2.185848 5.34889863 0 0 Z " fill="#7D1DC8" transform="translate(80,118)"/>
<path d="M0 0 C3.41021743 0.78697325 6.68885166 1.87119943 10 3 C8 5 8 5 4.875 5.125 C3.92625 5.08375 2.9775 5.0425 2 5 C2 5.66 2 6.32 2 7 C0.35 7 -1.3 7 -3 7 C-3 7.66 -3 8.32 -3 9 C-4.32 9 -5.64 9 -7 9 C-6.67 7.02 -6.34 5.04 -6 3 C-3.03 3.495 -3.03 3.495 0 4 C0 2.68 0 1.36 0 0 Z " fill="#8E25E0" transform="translate(215,182)"/>
<path d="M0 0 C2.475 0.495 2.475 0.495 5 1 C1.8957689 4.32017247 -1.58273616 6.14151584 -5.5625 8.25 C-6.24763672 8.62640625 -6.93277344 9.0028125 -7.63867188 9.390625 C-9.39199851 10.32665021 -11.19356493 11.17109121 -13 12 C-13.66 11.67 -14.32 11.34 -15 11 C-13.75 9.5 -13.75 9.5 -12 8 C-10.68 8 -9.36 8 -8 8 C-8.33 7.01 -8.66 6.02 -9 5 C-7.625 3.5 -7.625 3.5 -6 2 C-5.34 2 -4.68 2 -4 2 C-3.67 2.33 -3.34 2.66 -3 3 C-2.34 3 -1.68 3 -1 3 C-0.67 2.01 -0.34 1.02 0 0 Z " fill="#9C4EDF" transform="translate(121,241)"/>
<path d="M0 0 C0.33 1.32 0.66 2.64 1 4 C1.556875 3.855625 2.11375 3.71125 2.6875 3.5625 C3.450625 3.376875 4.21375 3.19125 5 3 C6.11375 2.7215625 6.11375 2.7215625 7.25 2.4375 C10.87572984 1.86067934 14.32937527 1.93778602 18 2 C18 2.33 18 2.66 18 3 C17.04738281 3.18175781 16.09476563 3.36351562 15.11328125 3.55078125 C13.85902344 3.80214844 12.60476562 4.05351562 11.3125 4.3125 C10.07113281 4.55613281 8.82976562 4.79976562 7.55078125 5.05078125 C3.29709264 6.18790593 0.00710564 7.32149061 -2.3125 11.1875 C-2.539375 11.785625 -2.76625 12.38375 -3 13 C-4 11 -4 11 -3.22265625 8.3984375 C-2.83980469 7.40070313 -2.45695312 6.40296875 -2.0625 5.375 C-1.68222656 4.37210938 -1.30195312 3.36921875 -0.91015625 2.3359375 C-0.60980469 1.56507813 -0.30945312 0.79421875 0 0 Z " fill="#B15BF2" transform="translate(59,175)"/>
<path d="M0 0 C0 0.66 0 1.32 0 2 C1.01191406 1.9175 2.02382813 1.835 3.06640625 1.75 C7.5891937 2.03744627 10.2951668 3.52438433 13.9375 6 C14.52595703 6.3815625 15.11441406 6.763125 15.72070312 7.15625 C17.15641767 8.09004808 18.57958564 9.04308927 20 10 C18.125 10.60546875 18.125 10.60546875 16 11 C15.34 10.443125 14.68 9.88625 14 9.3125 C7.85625596 4.5766973 -0.34383576 2.69601493 -8 2 C-8 1.67 -8 1.34 -8 1 C-5.23735711 0.40267181 -2.83967231 0 0 0 Z " fill="#B577E6" transform="translate(256,111)"/>
<path d="M0 0 C1.44632813 0.25716797 1.44632813 0.25716797 2.921875 0.51953125 C3.69015625 0.73996094 4.4584375 0.96039062 5.25 1.1875 C5.58 1.8475 5.91 2.5075 6.25 3.1875 C3.02208445 5.3394437 1.96599191 5.38836443 -1.75 5.1875 C-2.08 4.1975 -2.41 3.2075 -2.75 2.1875 C-6.38 2.1875 -10.01 2.1875 -13.75 2.1875 C-9.02042492 -0.96555005 -5.50563511 -1.0341666 0 0 Z " fill="#5A2F79" transform="translate(106.75,24.8125)"/>
<path d="M0 0 C0.99 0.33 1.98 0.66 3 1 C1.2519799 2.6063702 -0.49831644 4.21013297 -2.25 5.8125 C-2.74113281 6.26431641 -3.23226562 6.71613281 -3.73828125 7.18164062 C-6.39507648 9.60818027 -9.07465076 11.90349971 -12 14 C-12.66 13.67 -13.32 13.34 -14 13 C-9.55618306 8.41283413 -4.79771501 4.21237287 0 0 Z " fill="#871CDA" transform="translate(157,80)"/>
<path d="M0 0 C0.95542922 3.35801406 0.92243857 4.92009737 -0.375 8.1875 C-1.58439065 11.47400554 -2.21270477 14.31952797 -2.4375 17.8125 C-2.70443876 21.13182545 -2.86972569 21.83814404 -5.0625 24.5625 C-5.701875 25.036875 -6.34125 25.51125 -7 26 C-6.36519395 20.077822 -4.78907028 14.71172256 -2.9375 9.0625 C-2.65583984 8.18787109 -2.37417969 7.31324219 -2.08398438 6.41210938 C-1.39434445 4.27305673 -0.69959171 2.13581421 0 0 Z " fill="#7C529D" transform="translate(77,54)"/>
<path d="M0 0 C2 2 2 2 2 5 C2.99 5 3.98 5 5 5 C4.67 6.65 4.34 8.3 4 10 C-0.2742558 8.4169423 -2.26531794 5.49431596 -5 2 C-4.360625 1.855625 -3.72125 1.71125 -3.0625 1.5625 C-1.02454854 1.18992819 -1.02454854 1.18992819 0 0 Z " fill="#872BCC" transform="translate(86,241)"/>
<path d="M0 0 C0.99 0.33 1.98 0.66 3 1 C2.113125 1.721875 1.22625 2.44375 0.3125 3.1875 C-2.62912698 5.63770224 -5.32699874 8.2566566 -8 11 C-9.33333333 12.33333333 -10.66666667 13.66666667 -12 15 C-10.71442631 9.90203536 -8.86437268 7.50062303 -4.875 4.125 C-3.96492187 3.34382812 -3.05484375 2.56265625 -2.1171875 1.7578125 C-1.06917969 0.88769531 -1.06917969 0.88769531 0 0 Z " fill="#741DB7" transform="translate(168,146)"/>
<path d="M0 0 C3.87302138 1.14430177 7.00263439 2.23320098 10 5 C10 5.66 10 6.32 10 7 C9.34 7 8.68 7 8 7 C7.67 7.66 7.34 8.32 7 9 C6.67 7.68 6.34 6.36 6 5 C5.21625 5.185625 4.4325 5.37125 3.625 5.5625 C1 6 1 6 -1 5 C-0.67 3.35 -0.34 1.7 0 0 Z " fill="#AF61F0" transform="translate(215,87)"/>
<path d="M0 0 C1.98 0.99 3.96 1.98 6 3 C6 3.99 6 4.98 6 6 C1.38 6.33 -3.24 6.66 -8 7 C-6.35 5.68 -4.7 4.36 -3 3 C-2.34 3.33 -1.68 3.66 -1 4 C-0.67 2.68 -0.34 1.36 0 0 Z " fill="#721FB0" transform="translate(180,66)"/>
<path d="M0 0 C0.33 0 0.66 0 1 0 C2.33333333 4.66666667 3.66666667 9.33333333 5 14 C7.97 14.495 7.97 14.495 11 15 C11 16.32 11 17.64 11 19 C7.62594278 18.75006984 6.7777929 17.76721161 4.375 15.25 C0.50639846 10.23867308 -0.2492381 6.35557148 0 0 Z " fill="#B16CE5" transform="translate(53,192)"/>
<path d="M0 0 C1.32 0.33 2.64 0.66 4 1 C1.54732365 2.53068488 -0.91133894 4.04968623 -3.375 5.5625 C-4.07367188 6.00013672 -4.77234375 6.43777344 -5.4921875 6.88867188 C-7.29185903 7.98750978 -9.14322343 9.00067867 -11 10 C-11.66 9.67 -12.32 9.34 -13 9 C-12.67 8.01 -12.34 7.02 -12 6 C-11.01 6.33 -10.02 6.66 -9 7 C-8.67 6.01 -8.34 5.02 -8 4 C-7.01 4 -6.02 4 -5 4 C-5 3.34 -5 2.68 -5 2 C-3.35 2 -1.7 2 0 2 C0 1.34 0 0.68 0 0 Z " fill="#A154DC" transform="translate(217,187)"/>
<path d="M0 0 C3.96 0 7.92 0 12 0 C11.1875 2.9375 11.1875 2.9375 10 6 C9.01 6.33 8.02 6.66 7 7 C6.773125 6.195625 6.54625 5.39125 6.3125 4.5625 C5.879375 3.716875 5.44625 2.87125 5 2 C2.45224694 1.10613836 2.45224694 1.10613836 0 1 C0 0.67 0 0.34 0 0 Z " fill="#3D0664" transform="translate(68,116)"/>
<path d="M0 0 C1.15628906 0.63228516 1.15628906 0.63228516 2.3359375 1.27734375 C3.33882812 1.82519531 4.34171875 2.37304688 5.375 2.9375 C6.37273437 3.48277344 7.37046875 4.02804688 8.3984375 4.58984375 C9.92070346 5.4149759 11.45128783 6.22564391 13 7 C13 7.99 13 8.98 13 10 C11.68 10 10.36 10 9 10 C8.67 9.34 8.34 8.68 8 8 C7.01 7.67 6.02 7.34 5 7 C5 6.34 5 5.68 5 5 C4.01 5 3.02 5 2 5 C2 4.01 2 3.02 2 2 C1.34 2 0.68 2 0 2 C0 1.34 0 0.68 0 0 Z " fill="#BE85EC" transform="translate(225,92)"/>
<path d="M0 0 C-4.19977919 3.6578722 -8.87201939 6.79365864 -14 9 C-14.66 8.67 -15.32 8.34 -16 8 C-15.3125 6.0625 -15.3125 6.0625 -14 4 C-12.34385343 3.61781233 -10.67542976 3.28604898 -9 3 C-7.37485532 1.54166642 -7.37485532 1.54166642 -6 0 C-3 -1 -3 -1 0 0 Z " fill="#A153DC" transform="translate(142,233)"/>
<path d="M0 0 C2.97 0 5.94 0 9 0 C5.81404865 2.63978826 2.69029454 5.10498388 -1 7 C-1.66 6.67 -2.32 6.34 -3 6 C-3 4.68 -3 3.36 -3 2 C-2.01 2 -1.02 2 0 2 C0 1.34 0 0.68 0 0 Z " fill="#A146E1" transform="translate(228,178)"/>
<path d="M0 0 C3.59391114 1.33488128 6.75490696 2.96022723 10 5 C6.67465243 6.10844919 4.37817425 5.84454356 1 5 C0.67 5.66 0.34 6.32 0 7 C-0.99 7 -1.98 7 -3 7 C-3 6.01 -3 5.02 -3 4 C-2.34 4 -1.68 4 -1 4 C-0.67 2.68 -0.34 1.36 0 0 Z " fill="#6F2EA5" transform="translate(164,57)"/>
<path d="M0 0 C1.72990025 0.93614567 3.45888696 1.87397958 5.1875 2.8125 C6.15042969 3.33457031 7.11335937 3.85664062 8.10546875 4.39453125 C10.77398357 5.87463866 13.39374227 7.41337509 16 9 C14.68 9.33 13.36 9.66 12 10 C11.67 9.34 11.34 8.68 11 8 C9.00882592 7.30741771 7.0078864 6.64252365 5 6 C4.01 5.34 3.02 4.68 2 4 C2 3.34 2 2.68 2 2 C1.34 2 0.68 2 0 2 C0 1.34 0 0.68 0 0 Z " fill="#B06BE4" transform="translate(199,77)"/>
<path d="M0 0 C5.28 0 10.56 0 16 0 C15.67 0.66 15.34 1.32 15 2 C13.824375 1.95875 12.64875 1.9175 11.4375 1.875 C7.27590326 1.86016365 3.93512333 2.68829222 0 4 C0 2.68 0 1.36 0 0 Z " fill="#891DDC" transform="translate(81,116)"/>
<path d="M0 0 C1.41811747 4.71251344 1.1928851 9.2442594 0 14 C-2.5625 16.625 -2.5625 16.625 -5 18 C-1.92482916 5.33029613 -1.92482916 5.33029613 0 0 Z " fill="#8452AF" transform="translate(61,106)"/>
<path d="M0 0 C1.32 0.33 2.64 0.66 4 1 C1.8782637 2.33878572 -0.24705188 3.67115476 -2.375 5 C-2.97828125 5.3815625 -3.5815625 5.763125 -4.203125 6.15625 C-8.7734375 9 -8.7734375 9 -11 9 C-11 8.34 -11 7.68 -11 7 C-11.66 6.67 -12.32 6.34 -13 6 C-11.02 6 -9.04 6 -7 6 C-6.67 5.01 -6.34 4.02 -6 3 C-5.01 3.33 -4.02 3.66 -3 4 C-3 3.34 -3 2.68 -3 2 C-2.01 2 -1.02 2 0 2 C0 1.34 0 0.68 0 0 Z " fill="#A354DD" transform="translate(153,224)"/>
<path d="M0 0 C4.03837057 0.26481119 6.35406471 1.22555008 9.8125 3.25 C6.81718461 4.24843846 5.63994268 4.25732761 2.625 3.8125 C1.366875 3.626875 0.10875 3.44125 -1.1875 3.25 C-1.5175 4.24 -1.8475 5.23 -2.1875 6.25 C-2.8475 4.6 -3.5075 2.95 -4.1875 1.25 C-3.1875 0.25 -3.1875 0.25 0 0 Z " fill="#751EB4" transform="translate(260.1875,115.75)"/>
<path d="M0 0 C0.99 0.33 1.98 0.66 3 1 C2.01 1.66 1.02 2.32 0 3 C0.99 4.485 0.99 4.485 2 6 C1.01 6.66 0.02 7.32 -1 8 C-1 7.34 -1 6.68 -1 6 C-3.475 7.485 -3.475 7.485 -6 9 C-5.67 7.35 -5.34 5.7 -5 4 C-4.01 3.67 -3.02 3.34 -2 3 C-2 2.34 -2 1.68 -2 1 C-1.34 0.67 -0.68 0.34 0 0 Z " fill="#3E0966" transform="translate(63,117)"/>
<path d="M0 0 C2 3 2 3 1.625 5.6875 C1.41875 6.450625 1.2125 7.21375 1 8 C-0.32 8.33 -1.64 8.66 -3 9 C-3.66 7.02 -4.32 5.04 -5 3 C-3.68 3.33 -2.36 3.66 -1 4 C-0.67 2.68 -0.34 1.36 0 0 Z " fill="#A446E9" transform="translate(61,197)"/>
<path d="M0 0 C-0.33 0.66 -0.66 1.32 -1 2 C-1.66 1.67 -2.32 1.34 -3 1 C-3 1.66 -3 2.32 -3 3 C0.3 3 3.6 3 7 3 C7 3.33 7 3.66 7 4 C5.27119018 4.05449838 3.54187288 4.09301688 1.8125 4.125 C0.84957031 4.14820313 -0.11335938 4.17140625 -1.10546875 4.1953125 C-4.12812778 3.9913544 -6.26769985 3.26874632 -9 2 C-5.945634 -1.054366 -3.9532319 -1.22686507 0 0 Z " fill="#9C4BDC" transform="translate(99,250)"/>
<path d="M0 0 C1.74271938 2.297221 3.39911152 4.59866729 5 7 C5.66 7 6.32 7 7 7 C7.33 8.65 7.66 10.3 8 12 C4.19197555 10.5039904 2.30575443 8.33936849 0 5 C-0.8125 2.75 -0.8125 2.75 -1 1 C-0.67 0.67 -0.34 0.34 0 0 Z " fill="#753E9F" transform="translate(56,137)"/>
<path d="M0 0 C-2.87949147 2.23960447 -5.76742026 4.29864224 -9 6 C-9.66 5.67 -10.32 5.34 -11 5 C-11 4.01 -11 3.02 -11 2 C-7.17679443 0.57741188 -4.08718695 -0.24042276 0 0 Z " fill="#A44FE3" transform="translate(253,169)"/>
<path d="M0 0 C0.33 0 0.66 0 1 0 C1.33 3.3 1.66 6.6 2 10 C-1.63 9.34 -5.26 8.68 -9 8 C-7.68 7.67 -6.36 7.34 -5 7 C-4.01 6.67 -3.02 6.34 -2 6 C-0.77479736 2.99152582 -0.77479736 2.99152582 0 0 Z " fill="#BC79EF" transform="translate(77,207)"/>
<path d="M0 0 C0.66 0.33 1.32 0.66 2 1 C1.625 2.9375 1.625 2.9375 1 5 C0.01 5.495 0.01 5.495 -1 6 C-1.65213292 8.02463255 -1.65213292 8.02463255 -2 10 C-2.66 10 -3.32 10 -4 10 C-3.51171875 3.9453125 -3.51171875 3.9453125 -3 2 C-2.01 1.34 -1.02 0.68 0 0 Z " fill="#8F23E5" transform="translate(60,182)"/>
<path d="M0 0 C1.32 0.33 2.64 0.66 4 1 C4 1.99 4 2.98 4 4 C-0.62 4 -5.24 4 -10 4 C-10 3.34 -10 2.68 -10 2 C-6.7 2 -3.4 2 0 2 C0 1.34 0 0.68 0 0 Z " fill="#8B2DD5" transform="translate(186,70)"/>
<path d="M0 0 C-1.17859976 3.35447625 -2.1189965 5.83924737 -5 8 C-8.1875 9.1875 -8.1875 9.1875 -11 10 C-10.67 9.01 -10.34 8.02 -10 7 C-8.02 6.67 -6.04 6.34 -4 6 C-4.33 5.01 -4.66 4.02 -5 3 C-2.25 0 -2.25 0 0 0 Z " fill="#9339D7" transform="translate(117,243)"/>
<path d="M0 0 C0.66 0 1.32 0 2 0 C2 1.32 2 2.64 2 4 C2.66 4 3.32 4 4 4 C3.38722388 6.96175123 2.74627478 8.38058783 1 11 C0 10 0 10 -0.09765625 7.71484375 C-0.08605469 6.79832031 -0.07445312 5.88179687 -0.0625 4.9375 C-0.05347656 4.01839844 -0.04445312 3.09929687 -0.03515625 2.15234375 C-0.02355469 1.44207031 -0.01195312 0.73179687 0 0 Z " fill="#9B3CE1" transform="translate(54,188)"/>
<path d="M0 0 C2.31 0 4.62 0 7 0 C3.80009492 2.74277578 0.99500618 4.6302836 -3 6 C-3.33 5.01 -3.66 4.02 -4 3 C-3.01 2.67 -2.02 2.34 -1 2 C-0.67 1.34 -0.34 0.68 0 0 Z " fill="#9D50DD" transform="translate(185,204)"/>
<path d="M0 0 C2.64 0 5.28 0 8 0 C8 4.29 8 8.58 8 13 C7.67 13 7.34 13 7 13 C6.67 9.7 6.34 6.4 6 3 C2.20211302 1.87873219 2.20211302 1.87873219 -1 2 C-0.67 1.34 -0.34 0.68 0 0 Z " fill="#8F23E1" transform="translate(71,179)"/>
<path d="M0 0 C2 0 2 0 3.625 1.1875 C5.42149467 3.55560662 5.23521845 5.09897251 5 8 C2.525 7.01 2.525 7.01 0 6 C0 4.02 0 2.04 0 0 Z " fill="#902AE4" transform="translate(272,147)"/>
<path d="M0 0 C0 0.33 0 0.66 0 1 C-0.95712891 1.16435547 -0.95712891 1.16435547 -1.93359375 1.33203125 C-2.75988281 1.49058594 -3.58617188 1.64914063 -4.4375 1.8125 C-5.26121094 1.96332031 -6.08492188 2.11414063 -6.93359375 2.26953125 C-7.61550781 2.51058594 -8.29742187 2.75164063 -9 3 C-9.33 3.99 -9.66 4.98 -10 6 C-10.99 5.34 -11.98 4.68 -13 4 C-12.67 3.01 -12.34 2.02 -12 1 C-8.32433144 -0.61729417 -3.92760325 -0.06546005 0 0 Z " fill="#350959" transform="translate(105,26)"/>
<path d="M0 0 C1.32 0.33 2.64 0.66 4 1 C3.67 1.99 3.34 2.98 3 4 C0.69 4.33 -1.62 4.66 -4 5 C-4.33 4.34 -4.66 3.68 -5 3 C-3.35 2.67 -1.7 2.34 0 2 C0 1.34 0 0.68 0 0 Z " fill="#973CDA" transform="translate(272,153)"/>
<path d="M0 0 C1.65 0 3.3 0 5 0 C3.68 2.64 2.36 5.28 1 8 C0.34 8 -0.32 8 -1 8 C-0.67 5.36 -0.34 2.72 0 0 Z " fill="#3D0E62" transform="translate(82,40)"/>
<path d="M0 0 C0 3.20395416 -0.74335022 5.09399739 -2 8 C-3.65 8 -5.3 8 -7 8 C-6.34 7.67 -5.68 7.34 -5 7 C-4.5359375 5.515 -4.5359375 5.515 -4.0625 4 C-3.711875 3.01 -3.36125 2.02 -3 1 C-2.01 0.67 -1.02 0.34 0 0 Z " fill="#942FDA" transform="translate(256,161)"/>
<path d="M0 0 C0.33 0 0.66 0 1 0 C1.35233161 5.37305699 1.35233161 5.37305699 1 8 C-1 10 -1 10 -3 11 C-3 9.35 -3 7.7 -3 6 C-2.34 6 -1.68 6 -1 6 C-0.67 4.02 -0.34 2.04 0 0 Z " fill="#9229E5" transform="translate(71,145)"/>
<path d="M0 0 C-5.14285714 4.42857143 -5.14285714 4.42857143 -9 5 C-8.6875 3.0625 -8.6875 3.0625 -8 1 C-5.07175348 0.02391783 -3.04386724 -0.08226668 0 0 Z " fill="#751DBA" transform="translate(211,120)"/>
<path d="M0 0 C3.3 1.65 6.6 3.3 10 5 C9.01 5.66 8.02 6.32 7 7 C4.3125 6.125 4.3125 6.125 2 5 C2 4.01 2 3.02 2 2 C1.34 2 0.68 2 0 2 C0 1.34 0 0.68 0 0 Z " fill="#66378E" transform="translate(138,42)"/>
<path d="M0 0 C3 1 6 2 9 3 C7 5 7 5 4.375 5.125 C3.59125 5.08375 2.8075 5.0425 2 5 C1.34 3.35 0.68 1.7 0 0 Z " fill="#9239E0" transform="translate(216,182)"/>
<path d="M0 0 C0.144375 0.598125 0.28875 1.19625 0.4375 1.8125 C0.8872439 3.56150404 1.42892341 5.28677023 2 7 C0.35 7.66 -1.3 8.32 -3 9 C-2.25 2.25 -2.25 2.25 0 0 Z " fill="#9E45E5" transform="translate(62,172)"/>
<path d="M0 0 C0.66 0.99 1.32 1.98 2 3 C1 5 0 7 -1 9 C-1.66 9 -2.32 9 -3 9 C-3.33 7.35 -3.66 5.7 -4 4 C-3.01 4 -2.02 4 -1 4 C-0.67 2.68 -0.34 1.36 0 0 Z " fill="#9F43DD" transform="translate(280,145)"/>
<path d="M0 0 C2.31 0 4.62 0 7 0 C6.67 1.65 6.34 3.3 6 5 C2.83884224 3.63016497 2.0072908 3.0109362 0 0 Z " fill="#8D38D1" transform="translate(84,246)"/>
<path d="M0 0 C0 1.32 0 2.64 0 4 C-2.31 4 -4.62 4 -7 4 C-7 3.34 -7 2.68 -7 2 C-4.35261084 0.5393715 -3.10551666 0 0 0 Z " fill="#9033DE" transform="translate(194,200)"/>
<path d="M0 0 C2.4375 0.8125 2.4375 0.8125 5 2 C5.33 2.99 5.66 3.98 6 5 C5.34 5 4.68 5 4 5 C3.67 5.66 3.34 6.32 3 7 C0 2.25 0 2.25 0 0 Z " fill="#B26FE9" transform="translate(219,89)"/>
<path d="M0 0 C0.99 0.33 1.98 0.66 3 1 C2.01 2.98 1.02 4.96 0 7 C-0.99 7 -1.98 7 -3 7 C-1.125 1.125 -1.125 1.125 0 0 Z " fill="#532B70" transform="translate(85,33)"/>
<path d="M0 0 C0.66 0.33 1.32 0.66 2 1 C-3.14285714 6.57142857 -3.14285714 6.57142857 -7 7 C-7 6.34 -7 5.68 -7 5 C-5.03277992 3.61876037 -3.03131672 2.28511874 -1 1 C-0.67 0.67 -0.34 0.34 0 0 Z " fill="#7E28BE" transform="translate(149,163)"/>
<path d="M0 0 C0.33 0 0.66 0 1 0 C1.33 2.97 1.66 5.94 2 9 C1.01 9 0.02 9 -1 9 C-0.67 6.03 -0.34 3.06 0 0 Z " fill="#8523D5" transform="translate(281,130)"/>
<path d="M0 0 C0.66 0.33 1.32 0.66 2 1 C-1.465 3.97 -1.465 3.97 -5 7 C-5.66 6.34 -6.32 5.68 -7 5 C-6.401875 4.731875 -5.80375 4.46375 -5.1875 4.1875 C-3.02775192 3.01506533 -1.64209744 1.80630718 0 0 Z " fill="#8B22DD" transform="translate(131,103)"/>
<path d="M0 0 C0.66 0 1.32 0 2 0 C2 0.99 2 1.98 2 3 C-1.3 3 -4.6 3 -8 3 C-8 2.34 -8 1.68 -8 1 C-6.865625 1.020625 -5.73125 1.04125 -4.5625 1.0625 C-1.18424326 1.41577477 -1.18424326 1.41577477 0 0 Z " fill="#8324CC" transform="translate(104,250)"/>
<path d="M0 0 C0.66 0.33 1.32 0.66 2 1 C1.25 2.9375 1.25 2.9375 0 5 C-2.125 5.75 -2.125 5.75 -4 6 C-2.25 1.125 -2.25 1.125 0 0 Z " fill="#9B41E1" transform="translate(258,162)"/>
<path d="M0 0 C1.2065625 0.0309375 1.2065625 0.0309375 2.4375 0.0625 C2.1075 1.0525 1.7775 2.0425 1.4375 3.0625 C0.7775 3.0625 0.1175 3.0625 -0.5625 3.0625 C-0.8925 4.0525 -1.2225 5.0425 -1.5625 6.0625 C-2.2225 4.4125 -2.8825 2.7625 -3.5625 1.0625 C-2.5625 0.0625 -2.5625 0.0625 0 0 Z " fill="#6F10B9" transform="translate(259.5625,115.9375)"/>
<path d="M0 0 C2.97 0.495 2.97 0.495 6 1 C6 1.99 6 2.98 6 4 C4.68 4 3.36 4 2 4 C1.34 2.68 0.68 1.36 0 0 Z " fill="#B87EE5" transform="translate(232,98)"/>
</svg>
